<svg width="39" height="39" viewBox="0 0 39 39" fill="none" xmlns="http://www.w3.org/2000/svg">
<path d="M33.0682 16.5553C30.2693 16.5553 27.678 15.6659 25.5618 14.1546V25.1412C25.5618 30.6371 21.1042 35.0925 15.6056 35.0925C13.554 35.0925 11.647 34.4724 10.063 33.4093C7.40133 31.6231 5.64893 28.586 5.64893 25.1411C5.64893 19.6455 10.1066 15.1901 15.6057 15.1902C16.0627 15.19 16.5192 15.221 16.9719 15.2829V16.5027L16.9716 20.7868C16.5359 20.6486 16.0713 20.5736 15.5894 20.5736C13.0739 20.5736 11.0351 22.6118 11.0351 25.1256C11.0351 26.9029 12.0542 28.442 13.5403 29.1917C14.1565 29.5024 14.8525 29.6774 15.5894 29.6774C18.0997 29.6774 20.1351 27.6476 20.1437 25.1411V3.6377H25.5617V4.33017C25.5809 4.53718 25.6084 4.74341 25.6443 4.9483C26.0203 7.09202 27.3027 8.92359 29.0828 10.0338C30.2781 10.7795 31.6594 11.1738 33.0683 11.1717L33.0682 16.5553Z" fill="white"/>
</svg>
