<svg width="38" height="38" viewBox="0 0 38 38" fill="none" xmlns="http://www.w3.org/2000/svg">
<g clip-path="url(#clip0_4214_1256)">
<path d="M29.3963 9.46198C27.4513 8.56918 25.3987 7.93253 23.2899 7.56798C23.2707 7.5644 23.2509 7.56696 23.2333 7.57529C23.2157 7.58361 23.2012 7.59728 23.1918 7.61435C22.928 8.08348 22.6359 8.69535 22.4314 9.17623C20.1255 8.83098 17.8314 8.83098 15.5729 9.17623C15.3684 8.6846 15.0656 8.08348 14.8008 7.61435C14.7909 7.59767 14.7763 7.58434 14.7588 7.57609C14.7413 7.56784 14.7217 7.56505 14.7026 7.5681C12.5936 7.93181 10.5409 8.5684 8.59613 9.46185C8.57949 9.46896 8.56547 9.48106 8.55601 9.49648C4.66676 15.307 3.60126 20.9746 4.124 26.572C4.12548 26.5857 4.1297 26.5989 4.1364 26.611C4.14309 26.623 4.15214 26.6336 4.163 26.6421C6.729 28.5266 9.21463 29.6706 11.6541 30.4289C11.6731 30.4345 11.6933 30.4342 11.7122 30.4281C11.731 30.4219 11.7474 30.4101 11.7594 30.3944C12.3364 29.6064 12.8508 28.7754 13.2919 27.9016C13.2979 27.8896 13.3014 27.8765 13.302 27.8631C13.3027 27.8497 13.3005 27.8363 13.2955 27.8239C13.2906 27.8114 13.2831 27.8001 13.2735 27.7907C13.2639 27.7813 13.2525 27.7741 13.2399 27.7695C12.4239 27.46 11.647 27.0826 10.8996 26.6541C10.886 26.6461 10.8746 26.6349 10.8663 26.6214C10.858 26.6079 10.8532 26.5926 10.8523 26.5768C10.8514 26.561 10.8543 26.5453 10.8609 26.5309C10.8675 26.5166 10.8775 26.504 10.8901 26.4945C11.0474 26.3766 11.2048 26.2541 11.3549 26.1302C11.3682 26.1192 11.3844 26.1122 11.4015 26.1098C11.4186 26.1075 11.4361 26.11 11.4519 26.1171C16.3616 28.3587 21.6769 28.3587 26.5286 26.1171C26.5444 26.1096 26.562 26.1067 26.5794 26.1088C26.5968 26.1109 26.6132 26.1179 26.6268 26.129C26.777 26.2527 26.9343 26.3766 27.0928 26.4945C27.1054 26.5039 27.1155 26.5164 27.1222 26.5307C27.1288 26.545 27.1319 26.5607 27.1311 26.5764C27.1303 26.5922 27.1256 26.6075 27.1175 26.621C27.1094 26.6345 27.098 26.6459 27.0845 26.654C26.3369 27.0907 25.5537 27.4634 24.7433 27.7682C24.7307 27.773 24.7192 27.7805 24.7097 27.79C24.7002 27.7995 24.6928 27.8109 24.688 27.8235C24.6832 27.8361 24.6811 27.8496 24.6819 27.863C24.6826 27.8765 24.6862 27.8896 24.6924 27.9016C25.1429 28.7741 25.6573 29.6051 26.2236 30.3931C26.2352 30.4094 26.2516 30.4216 26.2705 30.428C26.2894 30.4344 26.3098 30.4347 26.3289 30.4289C28.7801 29.6705 31.2658 28.5265 33.8318 26.6421C33.8428 26.634 33.852 26.6237 33.8588 26.6118C33.8655 26.5999 33.8696 26.5867 33.8709 26.5731C34.4964 20.1019 32.8231 14.4807 29.4353 9.4976C29.4269 9.48141 29.4131 9.46886 29.3963 9.46198ZM14.025 23.1637C12.5469 23.1637 11.3289 21.8066 11.3289 20.14C11.3289 18.4735 12.5233 17.1164 14.0251 17.1164C15.5386 17.1164 16.7448 18.4854 16.7211 20.1401C16.7211 21.8066 15.5268 23.1637 14.025 23.1637ZM23.9935 23.1637C22.5154 23.1637 21.2974 21.8066 21.2974 20.14C21.2974 18.4735 22.4916 17.1164 23.9935 17.1164C25.507 17.1164 26.7131 18.4854 26.6895 20.1401C26.6895 21.8066 25.507 23.1637 23.9935 23.1637Z" fill="white"/>
</g>
<defs>
<clipPath id="clip0_4214_1256">
<rect width="30" height="30" fill="white" transform="translate(4 4)"/>
</clipPath>
</defs>
</svg>
