<svg width="39" height="39" viewBox="0 0 39 39" fill="none" xmlns="http://www.w3.org/2000/svg">
<path d="M19.3639 7.11593C23.3531 7.11593 23.8258 7.13088 25.4014 7.20286C26.3486 7.2143 27.2868 7.38843 28.175 7.71765C28.8241 7.95718 29.4112 8.33917 29.8932 8.83551C30.3896 9.31751 30.7716 9.90465 31.0111 10.5537C31.3403 11.442 31.5144 12.3801 31.5259 13.3273C31.5979 14.9029 31.6128 15.3756 31.6128 19.3649C31.6128 23.3541 31.5979 23.8268 31.5259 25.4024C31.5144 26.3496 31.3403 27.2878 31.0111 28.176C30.7625 28.8205 30.3817 29.4058 29.8933 29.8943C29.4048 30.3827 28.8195 30.7635 28.175 31.0121C27.2868 31.3413 26.3486 31.5154 25.4014 31.5269C23.8258 31.5989 23.3531 31.6138 19.3639 31.6138C15.3746 31.6138 14.902 31.5989 13.3264 31.5269C12.3787 31.5156 11.44 31.3415 10.5514 31.0121C9.90279 30.7724 9.31614 30.3904 8.83452 29.8942C8.33818 29.4122 7.9562 28.8251 7.71666 28.176C7.38745 27.2878 7.21332 26.3496 7.20188 25.4024C7.12989 23.8268 7.11495 23.3541 7.11495 19.3649C7.11495 15.3756 7.12989 14.9029 7.20188 13.3273C7.21332 12.3801 7.38745 11.442 7.71666 10.5537C7.9562 9.90465 8.33818 9.31751 8.83452 8.83551C9.31653 8.33917 9.90366 7.95718 10.5528 7.71765C11.441 7.38843 12.3792 7.2143 13.3264 7.20286C14.902 7.13088 15.3746 7.11593 19.3639 7.11593ZM19.3639 4.42383C15.3067 4.42383 14.7974 4.44149 13.2041 4.51348C11.9647 4.53821 10.7385 4.77289 9.5775 5.20756C8.58007 5.58309 7.67662 6.17179 6.93022 6.93257C6.17011 7.67871 5.58188 8.58167 5.20657 9.57849C4.77237 10.7395 4.53814 11.9658 4.51385 13.2051C4.43915 14.7984 4.42285 15.3077 4.42285 19.3649C4.42285 23.422 4.44051 23.9314 4.51249 25.5247C4.53722 26.7641 4.77191 27.9903 5.20657 29.1512C5.58211 30.1487 6.17081 31.0521 6.93158 31.7985C7.67772 32.5586 8.58068 33.1469 9.5775 33.5222C10.7385 33.9564 11.9648 34.1906 13.2041 34.2149C14.7974 34.2896 15.3067 34.3059 19.3639 34.3059C23.4211 34.3059 23.9304 34.2882 25.5237 34.2163C26.7631 34.1915 27.9893 33.9568 29.1503 33.5222C30.1431 33.1383 31.0448 32.5512 31.7975 31.7985C32.5502 31.0458 33.1373 30.1441 33.5212 29.1512C33.9554 27.9902 34.1896 26.764 34.2139 25.5247C34.2886 23.9314 34.3049 23.422 34.3049 19.3649C34.3049 15.3077 34.2873 14.7984 34.2153 13.2051C34.1905 11.9657 33.9559 10.7395 33.5212 9.57849C33.1457 8.58106 32.557 7.67761 31.7962 6.93121C31.05 6.17109 30.1471 5.58287 29.1503 5.20756C27.9892 4.77335 26.763 4.53913 25.5237 4.51484C23.9304 4.44013 23.4211 4.42383 19.3639 4.42383ZM19.3639 11.692C17.8463 11.692 16.3629 12.142 15.1011 12.9851C13.8393 13.8282 12.8558 15.0265 12.2751 16.4286C11.6943 17.8306 11.5424 19.3734 11.8384 20.8618C12.1345 22.3502 12.8653 23.7174 13.9383 24.7904C15.0114 25.8635 16.3786 26.5943 17.867 26.8903C19.3554 27.1864 20.8981 27.0344 22.3002 26.4537C23.7022 25.873 24.9006 24.8895 25.7437 23.6277C26.5868 22.3659 27.0368 20.8824 27.0368 19.3649C27.0368 17.3299 26.2284 15.3783 24.7894 13.9393C23.3505 12.5004 21.3989 11.692 19.3639 11.692ZM19.3639 24.3457C18.3788 24.3457 17.4158 24.0536 16.5967 23.5063C15.7776 22.959 15.1392 22.1811 14.7622 21.2709C14.3853 20.3608 14.2866 19.3594 14.4788 18.3932C14.671 17.427 15.1454 16.5395 15.8419 15.8429C16.5385 15.1463 17.426 14.672 18.3922 14.4798C19.3584 14.2876 20.3598 14.3862 21.27 14.7632C22.1801 15.1402 22.958 15.7786 23.5053 16.5977C24.0526 17.4168 24.3447 18.3798 24.3447 19.3649C24.3447 20.6859 23.8199 21.9527 22.8858 22.8868C21.9518 23.8209 20.6849 24.3457 19.3639 24.3457ZM27.3397 9.59614C26.9851 9.59614 26.6384 9.7013 26.3436 9.89831C26.0487 10.0953 25.8189 10.3753 25.6832 10.703C25.5475 11.0306 25.512 11.3911 25.5812 11.7389C25.6504 12.0867 25.8211 12.4061 26.0719 12.6569C26.3226 12.9076 26.6421 13.0784 26.9899 13.1476C27.3377 13.2167 27.6982 13.1812 28.0258 13.0455C28.3534 12.9098 28.6334 12.68 28.8304 12.3852C29.0274 12.0903 29.1326 11.7437 29.1326 11.3891C29.1326 10.9136 28.9437 10.4575 28.6075 10.1213C28.2712 9.78504 27.8152 9.59614 27.3397 9.59614Z" fill="white"/>
</svg>
