<svg width="39" height="39" viewBox="0 0 39 39" fill="none" xmlns="http://www.w3.org/2000/svg">
<path fill-rule="evenodd" clip-rule="evenodd" d="M32.2671 6.79467C33.689 7.23483 34.8065 8.52702 35.1871 10.1713C35.8749 13.1487 35.8777 19.3644 35.8777 19.3644C35.8777 19.3644 35.8777 25.5801 35.1871 28.5575C34.8065 30.2018 33.689 31.494 32.2671 31.934C29.6925 32.7327 19.3638 32.7327 19.3638 32.7327C19.3638 32.7327 9.03527 32.7327 6.4606 31.934C5.0387 31.494 3.92129 30.2018 3.54066 28.5575C2.8501 25.5801 2.8501 19.3644 2.8501 19.3644C2.8501 19.3644 2.8501 13.1487 3.54066 10.1713C3.92129 8.52702 5.0387 7.23483 6.4606 6.79467C9.03527 5.99609 19.3638 5.99609 19.3638 5.99609C19.3638 5.99609 29.6925 5.99609 32.2671 6.79467ZM24.8895 19.3649L15.9005 24.5543V14.1754L24.8895 19.3649Z" fill="white"/>
</svg>
